<svg width="24" height="24" viewBox="0 0 24 24" fill="none" xmlns="http://www.w3.org/2000/svg">
<path d="M19.9 23.5001C19.743 23.5001 19.588 23.4501 19.458 23.3561L12 17.9281L4.542 23.3581C4.314 23.5221 4.012 23.5481 3.76 23.4181C3.51 23.2911 3.35 23.0331 3.35 22.7511V5.6001C3.35 4.3601 4.36 3.3501 5.6 3.3501H18.398C19.638 3.3501 20.648 4.3601 20.648 5.6001V22.7501C20.648 23.0321 20.49 23.2901 20.238 23.4181C20.132 23.4731 20.015 23.5001 19.898 23.5001H19.9ZM12 16.2501C12.155 16.2501 12.31 16.2981 12.44 16.3941L19.15 21.2771V5.6001C19.15 5.1881 18.813 4.8501 18.4 4.8501H5.6C5.187 4.8501 4.85 5.1881 4.85 5.6001V21.2771L11.56 16.3941C11.69 16.2981 11.845 16.2501 12 16.2501V16.2501Z" fill="#D9D9D9"/>
</svg>
