<svg width="20" height="20" viewBox="0 0 20 20" fill="none" xmlns="http://www.w3.org/2000/svg">
<path d="M15.8333 8.75V7.33334H12.1667V12.6667H13.5833V11H15.25V9.58334H13.5833V8.75H15.8333ZM9.74999 7.33334H11.1667V12.6667H9.74999V7.33334ZM6.75 8.66667C7.08333 8.66667 7.5 8.83334 7.75 9.08334L8.75 8.25C8.25 7.66667 7.5 7.33334 6.75 7.33334C5.25 7.33334 4.08333 8.5 4.08333 10C4.08333 11.5 5.25 12.6667 6.75 12.6667C7.58333 12.6667 8.25 12.3333 8.75 11.75V9.66667H6.41666V10.6667H7.41666V11.1667C7.24999 11.25 7 11.3333 6.75 11.3333C6 11.3333 5.41666 10.75 5.41666 10C5.41666 9.33334 6 8.66667 6.75 8.66667Z" fill="#1D9BF0"/>
<path d="M17.0833 1.68333H2.91667C1.88334 1.68333 1.04167 2.5225 1.04167 3.55583V16.4783C1.04167 17.51 1.88334 18.35 2.91667 18.35H17.0833C18.1167 18.35 18.9583 17.51 18.9583 16.4783V3.55583C18.9583 2.5225 18.1167 1.68333 17.0833 1.68333ZM17.7083 16.4783C17.7083 16.82 17.4283 17.1 17.0833 17.1H2.91667C2.57167 17.1 2.29167 16.82 2.29167 16.4783V3.55583C2.29167 3.2125 2.57167 2.93333 2.91667 2.93333H17.0833C17.4283 2.93333 17.7083 3.2125 17.7083 3.55583V16.4783Z" fill="#1D9BF0"/>
</svg>
