<svg width="18" height="18" viewBox="0 0 18 18" fill="none" xmlns="http://www.w3.org/2000/svg">
<path d="M15.4583 0.666668H2.54167C1.50834 0.666668 0.666672 1.50833 0.666672 2.54167V15.4583C0.666672 16.4917 1.50834 17.3333 2.54167 17.3333H15.4583C16.4917 17.3333 17.3333 16.4917 17.3333 15.4583V2.54167C17.3333 1.50833 16.4917 0.666668 15.4583 0.666668ZM2.54167 1.91667H15.4583C15.8025 1.91667 16.0833 2.1975 16.0833 2.54167V10.605L12.8683 7.39C12.7517 7.27333 12.5933 7.20667 12.4267 7.20667H12.4242C12.2575 7.20667 12.0967 7.27333 11.9808 7.39333L8.38334 11.0467L6.87251 9.54167C6.75584 9.425 6.59751 9.35834 6.43084 9.35834C6.27001 9.33333 6.10167 9.425 5.98501 9.5475L1.91667 13.7017V2.54167C1.91667 2.1975 2.19751 1.91667 2.54167 1.91667ZM1.92167 15.4833L6.43667 10.8717L11.6717 16.0833H2.54167C2.20667 16.0833 1.93584 15.815 1.92167 15.4833ZM15.4583 16.0833H13.4417L9.26917 11.9275L12.4292 8.71917L16.0833 12.3725V15.4583C16.0833 15.8025 15.8025 16.0833 15.4583 16.0833Z" fill="#1D9BF0"/>
<path d="M6.39 7.20917C7.09968 7.20917 7.675 6.63385 7.675 5.92417C7.675 5.21448 7.09968 4.63917 6.39 4.63917C5.68031 4.63917 5.105 5.21448 5.105 5.92417C5.105 6.63385 5.68031 7.20917 6.39 7.20917Z" fill="#1D9BF0"/>
</svg>
