<svg width="20" height="20" viewBox="0 0 20 20" fill="none" xmlns="http://www.w3.org/2000/svg">
<g clip-path="url(#clip0_108_945)">
<path d="M-31.5833 15C-31.6667 14.9167 -31.6667 14.9167 -31.6667 14.8333C-31.5833 14.8333 -31.5833 14.9167 -31.5833 15ZM15 1.83333H13.9167V1.58333C13.9167 1.25 13.6667 0.916664 13.25 0.916664C12.9167 0.916664 12.5833 1.16666 12.5833 1.58333V1.83333H6.41668V1.58333C6.41668 1.25 6.16668 0.916664 5.75001 0.916664C5.41668 0.916664 5.08334 1.16666 5.08334 1.58333V1.83333H4.00001C2.83334 1.83333 1.91668 2.75 1.91668 3.91666V14.8333C1.91668 16 2.83334 16.9167 4.00001 16.9167H6.41668C6.75001 16.9167 7.08334 16.6667 7.08334 16.25C7.08334 15.9167 6.83335 15.5833 6.41668 15.5833H4.00001C3.50001 15.5833 3.16668 15.1667 3.16668 14.75V6.58333C3.16668 6.33333 3.50001 6 4.00001 6H15C15.5 6 15.8333 6.33333 15.8333 6.58333V8.08333C15.8333 8.41666 16.0833 8.75 16.5 8.75C16.8333 8.75 17.1667 8.5 17.1667 8.08333V3.91666C17.0833 2.75 16.1667 1.83333 15 1.83333ZM15.8333 4.91666C15.5833 4.83333 15.25 4.75 15 4.75H4.00001C3.66668 4.75 3.41668 4.83333 3.16668 4.91666V3.91666C3.16668 3.41666 3.58334 3.08333 4.00001 3.08333H5.08334V3.5C5.08334 3.83333 5.33335 4.16666 5.75001 4.16666C6.08335 4.16666 6.41668 3.91666 6.41668 3.5V3.08333H12.6667V3.5C12.6667 3.83333 12.9167 4.16666 13.3333 4.16666C13.6667 4.16666 14 3.91666 14 3.5V3.08333H15C15.5 3.08333 15.8333 3.5 15.8333 3.91666V4.91666Z" fill="#1D9BF0"/>
<path d="M12.9167 8.66666C10.0833 8.66666 7.75 11 7.75 13.8333C7.75 16.6667 10.0833 19 12.9167 19C15.75 19 18.0833 16.6667 18.0833 13.8333C18.0833 11 15.75 8.66666 12.9167 8.66666ZM12.9167 17.8333C10.75 17.8333 9 16.0833 9 13.9167C9 11.75 10.75 10 12.9167 10C15.0833 10 16.8333 11.75 16.8333 13.9167C16.8333 16 15.0833 17.8333 12.9167 17.8333Z" fill="#1D9BF0"/>
<path d="M15.75 15.5833C15.6667 15.75 15.4167 15.9167 15.25 15.9167C15.1667 15.9167 15 15.9167 14.9167 15.8333L12.3333 14.1667V11.6667C12.3333 11.3333 12.5833 11 13 11C13.3333 11 13.6667 11.25 13.6667 11.6667V13.5L15.6667 14.75C15.8333 14.9167 15.9167 15.25 15.75 15.5833Z" fill="#1D9BF0"/>
</g>
<defs>
<clipPath id="clip0_108_945">
<rect width="20" height="20" fill="white"/>
</clipPath>
</defs>
</svg>
