<svg width="103" height="13" viewBox="0 0 103 13" fill="none" xmlns="http://www.w3.org/2000/svg">
<path d="M0.842285 9.23877C0.981445 11.0625 2.52686 12.249 4.76807 12.249C7.18506 12.249 8.71582 11.0112 8.71582 9.07031C8.71582 7.51758 7.83691 6.66797 5.64697 6.11865L4.54102 5.82568C3.0835 5.45215 2.50488 4.97607 2.50488 4.14844C2.50488 3.0791 3.43506 2.37598 4.84131 2.37598C6.15967 2.37598 7.05322 3.02051 7.23633 4.10449H8.56201C8.45215 2.39795 6.92871 1.18213 4.88525 1.18213C2.65137 1.18213 1.1499 2.39795 1.1499 4.19238C1.1499 5.69385 1.97754 6.55811 3.88916 7.0415L5.24414 7.39307C6.70166 7.75928 7.36084 8.33057 7.36084 9.23145C7.36084 10.2788 6.31348 11.0479 4.89258 11.0479C3.39111 11.0479 2.33643 10.3447 2.17529 9.23877H0.842285ZM13.9014 5.07861C15.1538 5.07861 15.9888 6.00146 16.0181 7.40039H11.6675C11.7627 6.00146 12.6416 5.07861 13.9014 5.07861ZM15.9814 9.95654C15.6519 10.6523 14.9634 11.0259 13.9453 11.0259C12.605 11.0259 11.7334 10.0371 11.6675 8.47705V8.41846H17.3438V7.93506C17.3438 5.48145 16.0474 3.96533 13.916 3.96533C11.748 3.96533 10.3564 5.57666 10.3564 8.05957C10.3564 10.5571 11.7261 12.1392 13.916 12.1392C15.6445 12.1392 16.8604 11.3115 17.2412 9.95654H15.9814ZM19.3213 12H20.5811V7.10742C20.5811 5.99414 21.4526 5.18848 22.6538 5.18848C22.9028 5.18848 23.3569 5.23242 23.4595 5.26172V4.00195C23.2983 3.97998 23.0347 3.96533 22.8296 3.96533C21.7822 3.96533 20.874 4.50732 20.6396 5.27637H20.5225V4.10449H19.3213V12ZM27.4658 11.0332C26.5503 11.0332 25.8691 10.5645 25.8691 9.75879C25.8691 8.96777 26.3965 8.55029 27.5977 8.46973L29.7217 8.33057V9.05566C29.7217 10.1836 28.7622 11.0332 27.4658 11.0332ZM27.2314 12.1392C28.2861 12.1392 29.1504 11.6777 29.6631 10.8354H29.7803V12H30.9814V6.59473C30.9814 4.9541 29.9048 3.96533 27.9785 3.96533C26.2939 3.96533 25.0488 4.80029 24.8804 6.06738H26.1548C26.3306 5.44482 26.9897 5.08594 27.9346 5.08594C29.1138 5.08594 29.7217 5.62061 29.7217 6.59473V7.3125L27.4438 7.45166C25.6055 7.56152 24.5654 8.37451 24.5654 9.78809C24.5654 11.231 25.7007 12.1392 27.2314 12.1392ZM39.8438 6.52148C39.624 5.11523 38.4521 3.96533 36.5332 3.96533C34.3213 3.96533 32.915 5.56201 32.915 8.02295C32.915 10.5352 34.3286 12.1392 36.5405 12.1392C38.4375 12.1392 39.6167 11.0698 39.8438 9.61963H38.5693C38.335 10.5132 37.5952 11.0039 36.5332 11.0039C35.127 11.0039 34.2188 9.84668 34.2188 8.02295C34.2188 6.23584 35.1123 5.10059 36.5332 5.10059C37.6685 5.10059 38.3643 5.73779 38.5693 6.52148H39.8438ZM41.7773 12H43.0371V7.32715C43.0371 5.99414 43.8135 5.10059 45.2271 5.10059C46.4209 5.10059 47.0508 5.79639 47.0508 7.19531V12H48.3105V6.8877C48.3105 5.03467 47.2559 3.96533 45.5859 3.96533C44.3774 3.96533 43.5498 4.47803 43.1543 5.34961H43.0371V0.969727H41.7773V12ZM59.0698 12V2.61768H62.4756V1.43115H54.3457V2.61768H57.7515V12H59.0698ZM73.3301 4.10449H72.063L70.5103 10.418H70.3931L68.6279 4.10449H67.4194L65.6543 10.418H65.5371L63.9844 4.10449H62.71L64.9219 12H66.1963L67.9541 5.8916H68.0713L69.8364 12H71.1182L73.3301 4.10449ZM75.0439 12H76.3037V4.10449H75.0439V12ZM75.6738 2.50049C76.1572 2.50049 76.5527 2.10498 76.5527 1.62158C76.5527 1.13818 76.1572 0.742676 75.6738 0.742676C75.1904 0.742676 74.7949 1.13818 74.7949 1.62158C74.7949 2.10498 75.1904 2.50049 75.6738 2.50049ZM79.2334 2.06104V4.10449H77.959V5.15918H79.2334V9.94922C79.2334 11.458 79.8853 12.0586 81.5112 12.0586C81.7603 12.0586 82.002 12.0293 82.251 11.9854V10.9233C82.0166 10.9453 81.8921 10.9526 81.665 10.9526C80.8447 10.9526 80.4932 10.5571 80.4932 9.62695V5.15918H82.251V4.10449H80.4932V2.06104H79.2334ZM84.6826 2.06104V4.10449H83.4082V5.15918H84.6826V9.94922C84.6826 11.458 85.3345 12.0586 86.9604 12.0586C87.2095 12.0586 87.4512 12.0293 87.7002 11.9854V10.9233C87.4658 10.9453 87.3413 10.9526 87.1143 10.9526C86.2939 10.9526 85.9424 10.5571 85.9424 9.62695V5.15918H87.7002V4.10449H85.9424V2.06104H84.6826ZM92.6367 5.07861C93.8892 5.07861 94.7241 6.00146 94.7534 7.40039H90.4028C90.498 6.00146 91.377 5.07861 92.6367 5.07861ZM94.7168 9.95654C94.3872 10.6523 93.6987 11.0259 92.6807 11.0259C91.3403 11.0259 90.4688 10.0371 90.4028 8.47705V8.41846H96.0791V7.93506C96.0791 5.48145 94.7827 3.96533 92.6514 3.96533C90.4834 3.96533 89.0918 5.57666 89.0918 8.05957C89.0918 10.5571 90.4614 12.1392 92.6514 12.1392C94.3799 12.1392 95.5957 11.3115 95.9766 9.95654H94.7168ZM98.0566 12H99.3164V7.10742C99.3164 5.99414 100.188 5.18848 101.389 5.18848C101.638 5.18848 102.092 5.23242 102.195 5.26172V4.00195C102.034 3.97998 101.77 3.96533 101.565 3.96533C100.518 3.96533 99.6094 4.50732 99.375 5.27637H99.2578V4.10449H98.0566V12Z" fill="#6E767D"/>
</svg>
