<svg width="20" height="21" viewBox="0 0 20 21" fill="none" xmlns="http://www.w3.org/2000/svg">
<path d="M14.6083 6.72498L10.4416 2.55831C10.1975 2.31414 9.80164 2.31414 9.5583 2.55831L5.39164 6.72498C5.14664 6.96914 5.14664 7.36497 5.39164 7.60831C5.63664 7.85164 6.0308 7.85331 6.27497 7.60831L9.37497 4.50831V13C9.37497 13.345 9.65497 13.625 9.99997 13.625C10.345 13.625 10.625 13.345 10.625 13V4.50831L13.725 7.60831C13.8466 7.73081 14.0066 7.79164 14.1666 7.79164C14.3266 7.79164 14.4866 7.73164 14.6083 7.60831C14.8525 7.36414 14.8525 6.96914 14.6083 6.72498Z" fill="#6E767D"/>
<path d="M16.4233 18.7866H3.57663C2.52329 18.7866 1.66663 17.93 1.66663 16.8766V12.1666C1.66663 11.8216 1.94663 11.5416 2.29163 11.5416C2.63663 11.5416 2.91663 11.8216 2.91663 12.1666V16.8766C2.91663 17.2408 3.21246 17.5366 3.57663 17.5366H16.4233C16.7875 17.5366 17.0833 17.2408 17.0833 16.8766V12.1666C17.0833 11.8216 17.3633 11.5416 17.7083 11.5416C18.0533 11.5416 18.3333 11.8216 18.3333 12.1666V16.8766C18.3333 17.93 17.4766 18.7866 16.4233 18.7866Z" fill="#6E767D"/>
</svg>
